<svg width="200" height="200" viewBox="0 0 200 200" fill="none" xmlns="http://www.w3.org/2000/svg">
  <rect x="30" y="40" width="120" height="110" rx="10" stroke="#001F3F" stroke-width="6" fill="white"/>
  <rect x="30" y="40" width="120" height="25" rx="5" fill="#FF6B6B"/>
  <circle cx="50" cy="80" r="6" fill="#001F3F"/>
  <circle cx="80" cy="80" r="6" fill="#001F3F"/>
  <circle cx="110" cy="80" r="6" fill="#001F3F"/>
  <circle cx="50" cy="105" r="6" fill="#001F3F"/>
  <circle cx="80" cy="105" r="6" fill="#001F3F"/>
  <circle cx="110" cy="105" r="6" fill="#001F3F"/>
  <circle cx="50" cy="130" r="6" fill="#001F3F"/>
  <circle cx="80" cy="130" r="6" fill="#001F3F"/>
  <circle cx="110" cy="130" r="6" fill="#001F3F"/>
  <rect x="55" y="20" width="15" height="25" rx="5" fill="#FF6B6B" stroke="#001F3F" stroke-width="4"/>
  <rect x="115" y="20" width="15" height="25" rx="5" fill="#FF6B6B" stroke="#001F3F" stroke-width="4"/>
  <circle cx="135" cy="135" r="35" fill="#7FDBFF" stroke="#001F3F" stroke-width="6"/>
  <line x1="135" y1="135" x2="135" y2="110" stroke="#001F3F" stroke-width="5" stroke-linecap="round"/>
  <line x1="135" y1="135" x2="155" y2="145" stroke="#001F3F" stroke-width="5" stroke-linecap="round"/>
  <circle cx="135" cy="135" r="3" fill="#001F3F"/>
</svg>
